# xmcd
#
# Track frame offsets: 
#        150
#        11980
#        25305
#        37815
#        50082
#        59467
#        69885
#        81955
#        92137
#        102835
#        115307
#        126427
#        137965
#        148797
#        158030
#        167297
#        177310
#        187507
#        199505
#        210885
#
# Disc length: 2934 seconds
#
# Revision: 4
# Processed by: cddbd v1.5.2PL0 Copyright (c) Steve Scherf et al.
# Submitted via: ExactAudioCopy v1.1
#
DISCID=0e0b7414
DTITLE=Homer and Jethro - America's Song Butchers: The Weird World of Ho
DTITLE=mer and Jethro
DYEAR=1997
DGENRE=Country
TTITLE0=Tennessee Border No.2 [1949]
TTITLE1=Baby, It's Cold Outside [with June Carter, 1949]
TTITLE2=Tennessee, Tennessee [1949]
TTITLE3=I'm Movin' On No.2 [1951]
TTITLE4=Li'l Ole Kiss of Fire [1952]
TTITLE5=The Billboard Song [1952]
TTITLE6=Jam-Bowl-Liar [1952]
TTITLE7=You Belong to Me No.2 [1952]
TTITLE8=Don't Let the Stars Get in Your Eyeballs [1953]
TTITLE9=(How Much) Is That Hound Dog in the Window? [1953]
TTITLE10=She Was Bitten on the Udder by an Adder [1954]
TTITLE11=Hernando's Hideaway [1954]
TTITLE12=Let Me Go, Blubber [1955]
TTITLE13=Mister Sandman [1955]
TTITLE14=Yaller Rose of Texas, You All [1955]
TTITLE15=Sixteen Tons [1955]
TTITLE16=Hart-Brake Motel [1956]
TTITLE17=The Battle of Kookamonga [1959]
TTITLE18=I Want to Hold Your Hand [1964]
TTITLE19=Misty [1965]
EXTD=Henry "Homer" Haynes (1920/1971): vocals, guitar\nKenneth "Jethro
EXTD=" Burns (1920/1989): vocals, mandolin\nCompilation produced by Mi
EXTD=ke Ragogna - compiled and annotated by Dave Samuelson.\nMastered b
EXTD=y Elliott Federman at DSW Mastering Studios, New York US-NY.\nCD:
EXTD=Razor and Tie RE 2130 (1997-03-18), UPC 793018213028.
EXTT0=
EXTT1=
EXTT2=
EXTT3=
EXTT4=
EXTT5=
EXTT6=
EXTT7=
EXTT8=
EXTT9=
EXTT10=
EXTT11=
EXTT12=
EXTT13=
EXTT14=
EXTT15=
EXTT16=
EXTT17=
EXTT18=
EXTT19=
PLAYORDER=
